<svg width="12" height="20" xmlns="http://www.w3.org/2000/svg"><path d="M12 3.036c.042 1.682-1.732 2.653-5.404 2.882 1.017 1.518 4.689 7.021 4.662 8.632-.027 1.729-2.469 4.929-4.798 5.418v-4.404s1.848-.585 1.848-1.185c0-.6-1.743-.825-1.743-.825H5.47s-1.688.225-1.688.825 1.902 1.185 1.902 1.185V20C3.354 19.643.672 16.329.64 14.56c-.023-1.606 3.665-7.235 4.674-8.767C1.744 5.55-.045 4.6 0 2.968.04 1.582 1.604 0 1.984 0h.031c.171.018.237.025 2.062 2.49a162.21 162.21 0 011.867 2.57L9.86.026l.167-.01c.38 0 1.937 1.61 1.972 3.02z" fill="#1E1A1E" fill-rule="evenodd"/></svg>